<mxfile host="app.diagrams.net" modified="2024-06-20T07:13:21.404Z" agent="Mozilla/5.0 (Windows NT 10.0; Win64; x64) AppleWebKit/537.36 (KHTML, like Gecko) Chrome/124.0.0.0 YaBrowser/24.6.0.0 Safari/537.36" version="24.5.5" etag="aIfPBOTMV1qJ7HxzHclF" type="github">
  <diagram name="Страница — 1" id="E4-KPbW9oOvoebxr2nas">
    <mxGraphModel>
      <root>
        <mxCell id="0" />
        <mxCell id="1" parent="0" />
      </root>
    </mxGraphModel>
  </diagram>
</mxfile>
